<?xml version="1.0" encoding="us-ascii" standalone="no"?><svg xmlns="http://www.w3.org/2000/svg" xmlns:xlink="http://www.w3.org/1999/xlink" contentStyleType="text/css" height="1606px" preserveAspectRatio="none" style="width:663px;height:1606px;background:#FFFFFF;" version="1.1" viewBox="0 0 663 1606" width="663px" zoomAndPan="magnify"><defs/><g><text fill="#000000" font-family="sans-serif" font-size="14" font-weight="bold" lengthAdjust="spacing" textLength="435" x="107" y="24.9659">Diagrama arquitetural (Componentes e conectores + Aloca&#231;&#227;o)</text><!--cluster FrontEnd--><g id="cluster_FrontEnd"><path d="M8.5,46.6699 L73.5,46.6699 A3.75,3.75 0 0 1 76,49.1699 L83,71.7378 L353.5,71.7378 A2.5,2.5 0 0 1 356,74.2378 L356,303.4399 A2.5,2.5 0 0 1 353.5,305.9399 L8.5,305.9399 A2.5,2.5 0 0 1 6,303.4399 L6,49.1699 A2.5,2.5 0 0 1 8.5,46.6699 " fill="none" style="stroke:#000000;stroke-width:1.5;"/><line style="stroke:#000000;stroke-width:1.5;" x1="6" x2="83" y1="71.7378" y2="71.7378"/><text fill="#000000" font-family="sans-serif" font-size="14" font-weight="bold" lengthAdjust="spacing" textLength="64" x="10" y="63.6358">FrontEnd</text></g><!--cluster ArquivosEst?ticos--><g id="cluster_ArquivosEst&#225;ticos"><polygon fill="none" points="30,102.6699,40,92.6699,332,92.6699,332,271.9399,322,281.9399,30,281.9399,30,102.6699" style="stroke:#181818;stroke-width:1.0;stroke-dasharray:7.0,7.0;"/><line style="stroke:#181818;stroke-width:1.0;stroke-dasharray:7.0,7.0;" x1="322" x2="332" y1="102.6699" y2="92.6699"/><line style="stroke:#181818;stroke-width:1.0;stroke-dasharray:7.0,7.0;" x1="30" x2="322" y1="102.6699" y2="102.6699"/><line style="stroke:#181818;stroke-width:1.0;stroke-dasharray:7.0,7.0;" x1="322" x2="322" y1="102.6699" y2="281.9399"/><text fill="#000000" font-family="sans-serif" font-size="14" font-weight="bold" lengthAdjust="spacing" textLength="124" x="115" y="120.6358">ArquivosEst&#225;ticos</text></g><!--cluster BackEnd--><g id="cluster_BackEnd"><path d="M37.5,604.0099 L97.5,604.0099 A3.75,3.75 0 0 1 100,606.5099 L107,629.0778 L653.5,629.0778 A2.5,2.5 0 0 1 656,631.5778 L656,1596.5599 A2.5,2.5 0 0 1 653.5,1599.0599 L37.5,1599.0599 A2.5,2.5 0 0 1 35,1596.5599 L35,606.5099 A2.5,2.5 0 0 1 37.5,604.0099 " fill="none" style="stroke:#000000;stroke-width:1.5;"/><line style="stroke:#000000;stroke-width:1.5;" x1="35" x2="107" y1="629.0778" y2="629.0778"/><text fill="#000000" font-family="sans-serif" font-size="14" font-weight="bold" lengthAdjust="spacing" textLength="59" x="39" y="620.9758">BackEnd</text></g><!--cluster OrderService--><g id="cluster_OrderService"><polygon fill="none" points="71,660.0099,81,650.0099,347,650.0099,347,829.2799,337,839.2799,71,839.2799,71,660.0099" style="stroke:#181818;stroke-width:1.0;stroke-dasharray:7.0,7.0;"/><line style="stroke:#181818;stroke-width:1.0;stroke-dasharray:7.0,7.0;" x1="337" x2="347" y1="660.0099" y2="650.0099"/><line style="stroke:#181818;stroke-width:1.0;stroke-dasharray:7.0,7.0;" x1="71" x2="337" y1="660.0099" y2="660.0099"/><line style="stroke:#181818;stroke-width:1.0;stroke-dasharray:7.0,7.0;" x1="337" x2="337" y1="660.0099" y2="839.2799"/><text fill="#000000" font-family="sans-serif" font-size="14" font-weight="bold" lengthAdjust="spacing" textLength="89" x="160.5" y="677.9758">OrderService</text></g><!--cluster InventoryService--><g id="cluster_InventoryService"><polygon fill="none" points="59,1005.3799,69,995.3799,383,995.3799,383,1174.6499,373,1184.6499,59,1184.6499,59,1005.3799" style="stroke:#181818;stroke-width:1.0;stroke-dasharray:7.0,7.0;"/><line style="stroke:#181818;stroke-width:1.0;stroke-dasharray:7.0,7.0;" x1="373" x2="383" y1="1005.3799" y2="995.3799"/><line style="stroke:#181818;stroke-width:1.0;stroke-dasharray:7.0,7.0;" x1="59" x2="373" y1="1005.3799" y2="1005.3799"/><line style="stroke:#181818;stroke-width:1.0;stroke-dasharray:7.0,7.0;" x1="373" x2="373" y1="1005.3799" y2="1184.6499"/><text fill="#000000" font-family="sans-serif" font-size="14" font-weight="bold" lengthAdjust="spacing" textLength="117" x="158.5" y="1023.3458">InventoryService</text></g><!--cluster NotificationService--><g id="cluster_NotificationService"><polygon fill="none" points="67,1352.7199,77,1342.7199,416,1342.7199,416,1557.0599,406,1567.0599,67,1567.0599,67,1352.7199" style="stroke:#181818;stroke-width:1.0;stroke-dasharray:7.0,7.0;"/><line style="stroke:#181818;stroke-width:1.0;stroke-dasharray:7.0,7.0;" x1="406" x2="416" y1="1352.7199" y2="1342.7199"/><line style="stroke:#181818;stroke-width:1.0;stroke-dasharray:7.0,7.0;" x1="67" x2="406" y1="1352.7199" y2="1352.7199"/><line style="stroke:#181818;stroke-width:1.0;stroke-dasharray:7.0,7.0;" x1="406" x2="406" y1="1352.7199" y2="1567.0599"/><text fill="#000000" font-family="sans-serif" font-size="14" font-weight="bold" lengthAdjust="spacing" textLength="131" x="172" y="1370.6858">NotificationService</text></g><!--entity pod1--><g id="elem_pod1"><polygon fill="#F1F1F1" points="46,145.6699,56,135.6699,316,135.6699,316,255.9416,306,265.9416,46,265.9416,46,145.6699" style="stroke:#181818;stroke-width:0.5;"/><line style="stroke:#181818;stroke-width:0.5;" x1="306" x2="316" y1="145.6699" y2="135.6699"/><line style="stroke:#181818;stroke-width:0.5;" x1="46" x2="306" y1="145.6699" y2="145.6699"/><line style="stroke:#181818;stroke-width:0.5;" x1="306" x2="306" y1="145.6699" y2="265.9416"/><text fill="#000000" font-family="sans-serif" font-size="14" lengthAdjust="spacing" textLength="202" x="61" y="170.6358">Servidor de arquivos est&#225;ticos</text><line style="stroke:#181818;stroke-width:1.0;" x1="46" x2="306" y1="174.7378" y2="174.7378"/><line style="stroke:#181818;stroke-width:1.0;" x1="306" x2="316" y1="174.7378" y2="164.7378"/><text fill="#000000" font-family="sans-serif" font-size="14" lengthAdjust="spacing" textLength="208" x="61" y="193.7038">Replic&#225;vel conforme demanda;</text><line style="stroke:#181818;stroke-width:1.0;" x1="46" x2="306" y1="201.8057" y2="201.8057"/><line style="stroke:#181818;stroke-width:1.0;" x1="306" x2="316" y1="201.8057" y2="191.8057"/><text fill="#000000" font-family="sans-serif" font-size="14" lengthAdjust="spacing" textLength="230" x="61" y="220.7717">Distribui os arquivos do Front-end</text><line style="stroke:#181818;stroke-width:1.0;" x1="46" x2="306" y1="228.8736" y2="228.8736"/><line style="stroke:#181818;stroke-width:1.0;" x1="306" x2="316" y1="228.8736" y2="218.8736"/><line style="stroke:#181818;stroke-width:1.0;" x1="46" x2="306" y1="230.8736" y2="230.8736"/><line style="stroke:#181818;stroke-width:1.0;" x1="306" x2="316" y1="230.8736" y2="220.8736"/><text fill="#000000" font-family="sans-serif" font-size="14" lengthAdjust="spacing" textLength="45" x="61" y="247.8396">NGINX</text></g><!--entity OrderDB--><g id="elem_OrderDB"><path d="M366.5,697.9699 C366.5,687.9699 453,687.9699 453,687.9699 C453,687.9699 539.5,687.9699 539.5,697.9699 L539.5,818.3095 C539.5,828.3095 453,828.3095 453,828.3095 C453,828.3095 366.5,828.3095 366.5,818.3095 L366.5,697.9699 " fill="#F1F1F1" style="stroke:#181818;stroke-width:0.5;"/><path d="M366.5,697.9699 C366.5,707.9699 453,707.9699 453,707.9699 C453,707.9699 539.5,707.9699 539.5,697.9699 " fill="none" style="stroke:#181818;stroke-width:0.5;"/><text fill="#000000" font-family="sans-serif" font-size="14" lengthAdjust="spacing" textLength="121" x="376.5" y="726.9358">Dados de pedidos</text><path d="M366.5,726.0378 C366.5,736.0378 453,736.0378 453,736.0378 C453,736.0378 539.5,736.0378 539.5,726.0378 " fill="none" style="stroke:#181818;stroke-width:1.0;"/><text fill="#000000" font-family="sans-serif" font-size="14" lengthAdjust="spacing" textLength="87" x="376.5" y="750.0038">Identificador</text><text fill="#000000" font-family="sans-serif" font-size="14" lengthAdjust="spacing" textLength="56" x="376.5" y="769.0717">Usu&#225;rio,</text><text fill="#000000" font-family="sans-serif" font-size="14" lengthAdjust="spacing" textLength="34" x="376.5" y="788.1396">Itens</text><path d="M366.5,791.2416 C366.5,801.2416 453,801.2416 453,801.2416 C453,801.2416 539.5,801.2416 539.5,791.2416 " fill="none" style="stroke:#181818;stroke-width:1.0;"/><path d="M366.5,793.2416 C366.5,803.2416 453,803.2416 453,803.2416 C453,803.2416 539.5,803.2416 539.5,793.2416 " fill="none" style="stroke:#181818;stroke-width:1.0;"/><text fill="#000000" font-family="sans-serif" font-size="14" lengthAdjust="spacing" textLength="153" x="376.5" y="815.2075">PostgreeSQL (orderDB)</text></g><!--entity InventoryDB--><g id="elem_InventoryDB"><path d="M402,1052.8799 C402,1042.8799 521,1042.8799 521,1042.8799 C521,1042.8799 640,1042.8799 640,1052.8799 L640,1154.1516 C640,1164.1516 521,1164.1516 521,1164.1516 C521,1164.1516 402,1164.1516 402,1154.1516 L402,1052.8799 " fill="#F1F1F1" style="stroke:#181818;stroke-width:0.5;"/><path d="M402,1052.8799 C402,1062.8799 521,1062.8799 521,1062.8799 C521,1062.8799 640,1062.8799 640,1052.8799 " fill="none" style="stroke:#181818;stroke-width:0.5;"/><text fill="#000000" font-family="sans-serif" font-size="14" lengthAdjust="spacing" textLength="135" x="412" y="1081.8458">Dados de invent&#225;rio</text><path d="M402,1080.9478 C402,1090.9478 521,1090.9478 521,1090.9478 C521,1090.9478 640,1090.9478 640,1080.9478 " fill="none" style="stroke:#181818;stroke-width:1.0;"/><text fill="#000000" font-family="sans-serif" font-size="14" lengthAdjust="spacing" textLength="114" x="412" y="1104.9138">Itens dispon&#237;veis</text><text fill="#000000" font-family="sans-serif" font-size="14" lengthAdjust="spacing" textLength="218" x="412" y="1123.9817">Quantidade de itens dispon&#237;veis</text><path d="M402,1127.0836 C402,1137.0836 521,1137.0836 521,1137.0836 C521,1137.0836 640,1137.0836 640,1127.0836 " fill="none" style="stroke:#181818;stroke-width:1.0;"/><path d="M402,1129.0836 C402,1139.0836 521,1139.0836 521,1139.0836 C521,1139.0836 640,1139.0836 640,1129.0836 " fill="none" style="stroke:#181818;stroke-width:1.0;"/><text fill="#000000" font-family="sans-serif" font-size="14" lengthAdjust="spacing" textLength="179" x="412" y="1151.0496">PostgreeSQL (inventoryDB)</text></g><!--entity orders--><g id="elem_orders"><path d="M188,888.3099 L242,888.3099 C247,888.3099 247,902.8439 247,902.8439 C247,902.8439 247,917.3778 242,917.3778 L188,917.3778 C183,917.3778 183,902.8439 183,902.8439 C183,902.8439 183,888.3099 188,888.3099 " fill="#F1F1F1" style="stroke:#181818;stroke-width:0.5;"/><path d="M242,888.3099 C237,888.3099 237,902.8439 237,902.8439 C237,917.3778 242,917.3778 242,917.3778 " fill="none" style="stroke:#181818;stroke-width:0.5;"/><text fill="#000000" font-family="sans-serif" font-size="14" lengthAdjust="spacing" textLength="44" x="188" y="908.2758">orders</text></g><!--entity inventoryEvents--><g id="elem_inventoryEvents"><path d="M177.5,1228.6499 L294.5,1228.6499 C299.5,1228.6499 299.5,1243.1839 299.5,1243.1839 C299.5,1243.1839 299.5,1257.7178 294.5,1257.7178 L177.5,1257.7178 C172.5,1257.7178 172.5,1243.1839 172.5,1243.1839 C172.5,1243.1839 172.5,1228.6499 177.5,1228.6499 " fill="#F1F1F1" style="stroke:#181818;stroke-width:0.5;"/><path d="M294.5,1228.6499 C289.5,1228.6499 289.5,1243.1839 289.5,1243.1839 C289.5,1257.7178 294.5,1257.7178 294.5,1257.7178 " fill="none" style="stroke:#181818;stroke-width:0.5;"/><text fill="#000000" font-family="sans-serif" font-size="14" lengthAdjust="spacing" textLength="107" x="177.5" y="1248.6158">inventoryEvents</text></g><!--entity pod2--><g id="elem_pod2"><polygon fill="#F1F1F1" points="87,703.0099,97,693.0099,331,693.0099,331,813.2816,321,823.2816,87,823.2816,87,703.0099" style="stroke:#181818;stroke-width:0.5;"/><line style="stroke:#181818;stroke-width:0.5;" x1="321" x2="331" y1="703.0099" y2="693.0099"/><line style="stroke:#181818;stroke-width:0.5;" x1="87" x2="321" y1="703.0099" y2="703.0099"/><line style="stroke:#181818;stroke-width:0.5;" x1="321" x2="321" y1="703.0099" y2="823.2816"/><text fill="#000000" font-family="sans-serif" font-size="14" lengthAdjust="spacing" textLength="59" x="102" y="727.9758">API REST</text><line style="stroke:#181818;stroke-width:1.0;" x1="87" x2="321" y1="732.0778" y2="732.0778"/><line style="stroke:#181818;stroke-width:1.0;" x1="321" x2="331" y1="732.0778" y2="722.0778"/><text fill="#000000" font-family="sans-serif" font-size="14" lengthAdjust="spacing" textLength="204" x="102" y="751.0438">Replic&#225;vel conforme demanda</text><line style="stroke:#181818;stroke-width:1.0;" x1="87" x2="321" y1="759.1457" y2="759.1457"/><line style="stroke:#181818;stroke-width:1.0;" x1="321" x2="331" y1="759.1457" y2="749.1457"/><text fill="#000000" font-family="sans-serif" font-size="14" lengthAdjust="spacing" textLength="197" x="102" y="778.1117">Recebe pedidos dos usu&#225;rios</text><line style="stroke:#181818;stroke-width:1.0;" x1="87" x2="321" y1="786.2136" y2="786.2136"/><line style="stroke:#181818;stroke-width:1.0;" x1="321" x2="331" y1="786.2136" y2="776.2136"/><line style="stroke:#181818;stroke-width:1.0;" x1="87" x2="321" y1="788.2136" y2="788.2136"/><line style="stroke:#181818;stroke-width:1.0;" x1="321" x2="331" y1="788.2136" y2="778.2136"/><text fill="#000000" font-family="sans-serif" font-size="14" lengthAdjust="spacing" textLength="122" x="102" y="805.1796">Java + Spring Boot</text></g><!--entity pod3--><g id="elem_pod3"><polygon fill="#F1F1F1" points="75.5,1048.3799,85.5,1038.3799,366.5,1038.3799,366.5,1158.6516,356.5,1168.6516,75.5,1168.6516,75.5,1048.3799" style="stroke:#181818;stroke-width:0.5;"/><line style="stroke:#181818;stroke-width:0.5;" x1="356.5" x2="366.5" y1="1048.3799" y2="1038.3799"/><line style="stroke:#181818;stroke-width:0.5;" x1="75.5" x2="356.5" y1="1048.3799" y2="1048.3799"/><line style="stroke:#181818;stroke-width:0.5;" x1="356.5" x2="356.5" y1="1048.3799" y2="1168.6516"/><text fill="#000000" font-family="sans-serif" font-size="14" lengthAdjust="spacing" textLength="95" x="90.5" y="1073.3458">Aplica&#231;&#227;o Java</text><line style="stroke:#181818;stroke-width:1.0;" x1="75.5" x2="356.5" y1="1077.4478" y2="1077.4478"/><line style="stroke:#181818;stroke-width:1.0;" x1="356.5" x2="366.5" y1="1077.4478" y2="1067.4478"/><text fill="#000000" font-family="sans-serif" font-size="14" lengthAdjust="spacing" textLength="204" x="90.5" y="1096.4138">Replic&#225;vel conforme demanda</text><line style="stroke:#181818;stroke-width:1.0;" x1="75.5" x2="356.5" y1="1104.5157" y2="1104.5157"/><line style="stroke:#181818;stroke-width:1.0;" x1="356.5" x2="366.5" y1="1104.5157" y2="1094.5157"/><text fill="#000000" font-family="sans-serif" font-size="14" lengthAdjust="spacing" textLength="251" x="90.5" y="1123.4817">Realiza a baixa de itens no invent&#225;rio</text><line style="stroke:#181818;stroke-width:1.0;" x1="75.5" x2="356.5" y1="1131.5836" y2="1131.5836"/><line style="stroke:#181818;stroke-width:1.0;" x1="356.5" x2="366.5" y1="1131.5836" y2="1121.5836"/><line style="stroke:#181818;stroke-width:1.0;" x1="75.5" x2="356.5" y1="1133.5836" y2="1133.5836"/><line style="stroke:#181818;stroke-width:1.0;" x1="356.5" x2="366.5" y1="1133.5836" y2="1123.5836"/><text fill="#000000" font-family="sans-serif" font-size="14" lengthAdjust="spacing" textLength="122" x="90.5" y="1150.5496">Java + Spring Boot</text></g><!--entity pod4--><g id="elem_pod4"><polygon fill="#F1F1F1" points="110,1403.7199,120,1393.7199,392,1393.7199,392,1533.0595,382,1543.0595,110,1543.0595,110,1403.7199" style="stroke:#181818;stroke-width:0.5;"/><line style="stroke:#181818;stroke-width:0.5;" x1="382" x2="392" y1="1403.7199" y2="1393.7199"/><line style="stroke:#181818;stroke-width:0.5;" x1="110" x2="382" y1="1403.7199" y2="1403.7199"/><line style="stroke:#181818;stroke-width:0.5;" x1="382" x2="382" y1="1403.7199" y2="1543.0595"/><text fill="#000000" font-family="sans-serif" font-size="14" lengthAdjust="spacing" textLength="95" x="125" y="1428.6858">Aplica&#231;&#227;o Java</text><line style="stroke:#181818;stroke-width:1.0;" x1="110" x2="382" y1="1432.7878" y2="1432.7878"/><line style="stroke:#181818;stroke-width:1.0;" x1="382" x2="392" y1="1432.7878" y2="1422.7878"/><text fill="#000000" font-family="sans-serif" font-size="14" lengthAdjust="spacing" textLength="204" x="125" y="1451.7538">Replic&#225;vel conforme demanda</text><line style="stroke:#181818;stroke-width:1.0;" x1="110" x2="382" y1="1459.8557" y2="1459.8557"/><line style="stroke:#181818;stroke-width:1.0;" x1="382" x2="392" y1="1459.8557" y2="1449.8557"/><text fill="#000000" font-family="sans-serif" font-size="14" lengthAdjust="spacing" textLength="242" x="125" y="1478.8217">Agendamenta de consultas virtuais;</text><text fill="#000000" font-family="sans-serif" font-size="14" lengthAdjust="spacing" textLength="184" x="125" y="1497.8896">Reuni&#245;es com especialistas</text><line style="stroke:#181818;stroke-width:1.0;" x1="110" x2="382" y1="1505.9916" y2="1505.9916"/><line style="stroke:#181818;stroke-width:1.0;" x1="382" x2="392" y1="1505.9916" y2="1495.9916"/><line style="stroke:#181818;stroke-width:1.0;" x1="110" x2="382" y1="1507.9916" y2="1507.9916"/><line style="stroke:#181818;stroke-width:1.0;" x1="382" x2="392" y1="1507.9916" y2="1497.9916"/><text fill="#000000" font-family="sans-serif" font-size="14" lengthAdjust="spacing" textLength="122" x="125" y="1524.9575">Java + Spring Boot</text></g><!--entity User--><g id="elem_User"><ellipse cx="78" cy="456.4399" fill="#F1F1F1" rx="8" ry="8" style="stroke:#181818;stroke-width:0.5;"/><path d="M78,464.4399 L78,491.4399 M65,472.4399 L91,472.4399 M78,491.4399 L65,506.4399 M78,491.4399 L91,506.4399 " fill="none" style="stroke:#181818;stroke-width:0.5;"/><text fill="#000000" font-family="sans-serif" font-size="14" lengthAdjust="spacing" textLength="31" x="62.5" y="522.9058">User</text></g><!--entity Front--><g id="elem_Front"><path d="M160.5,465.9399 L160.5,489.9399 M160.5,477.9399 L177.5,477.9399 " fill="none" style="stroke:#181818;stroke-width:0.5;"/><ellipse cx="189.5" cy="477.9399" fill="#F1F1F1" rx="12" ry="12" style="stroke:#181818;stroke-width:0.5;"/><text fill="#000000" font-family="sans-serif" font-size="14" lengthAdjust="spacing" textLength="35" x="163.5" y="508.9058">Front</text></g><!--link User to Front--><g id="link_User_Front"><path d="M99.64,487.0599 C116.3,487.0599 130.9,487.0599 150.37,487.0599 " fill="none" id="User-Front" style="stroke:#181818;stroke-width:1.0;"/><polygon fill="#181818" points="93.64,487.0599,102.64,491.0599,98.64,487.0599,102.64,483.0599,93.64,487.0599" style="stroke:#181818;stroke-width:1.0;"/><polygon fill="#181818" points="156.37,487.0599,147.37,483.0599,151.37,487.0599,147.37,491.0599,156.37,487.0599" style="stroke:#181818;stroke-width:1.0;"/><text fill="#000000" font-family="sans-serif" font-size="13" lengthAdjust="spacing" textLength="32" x="117.51" y="501.9569">input</text></g><!--link pod1 to Front--><g id="link_pod1_Front"><path d="M181,266.2099 C181,328.1799 181,412.0699 181,455.7399 " fill="none" id="pod1-to-Front" style="stroke:#181818;stroke-width:1.0;"/><polygon fill="#181818" points="181,461.7399,185,452.7399,181,456.7399,177,452.7399,181,461.7399" style="stroke:#181818;stroke-width:1.0;"/><text fill="#000000" font-family="sans-serif" font-size="13" lengthAdjust="spacing" textLength="156" x="24" y="359.8669">serve: HTTPS - TCP (10000)</text></g><!--link Front to pod2--><g id="link_Front_pod2"><path d="M181,519.4299 C181,560.3099 181,628.9799 181,686.5199 " fill="none" id="Front-pod2" style="stroke:#181818;stroke-width:1.0;"/><polygon fill="#181818" points="181,513.4299,177,522.4299,181,518.4299,185,522.4299,181,513.4299" style="stroke:#181818;stroke-width:1.0;"/><polygon fill="#181818" points="181,692.5199,185,683.5199,181,687.5199,177,683.5199,181,692.5199" style="stroke:#181818;stroke-width:1.0;"/><text fill="#000000" font-family="sans-serif" font-size="13" lengthAdjust="spacing" textLength="143" x="37" y="598.8669">REST - HTTP - TCP (1001)</text></g><!--link OrderDB to pod2--><g id="link_OrderDB_pod2"><path d="M360.29,758.0599 C348.92,758.0599 349.1,758.0599 337.28,758.0599 " fill="none" id="OrderDB-pod2" style="stroke:#181818;stroke-width:1.0;"/><polygon fill="#181818" points="366.29,758.0599,357.29,754.0599,361.29,758.0599,357.29,762.0599,366.29,758.0599" style="stroke:#181818;stroke-width:1.0;"/><polygon fill="#181818" points="331.28,758.0599,340.28,762.0599,336.28,758.0599,340.28,754.0599,331.28,758.0599" style="stroke:#181818;stroke-width:1.0;"/><text fill="#000000" font-family="sans-serif" font-size="13" lengthAdjust="spacing" textLength="62" x="317.78" y="772.9569">TCP (5432)</text></g><!--link pod2 to orders--><g id="link_pod2_orders"><path d="M215,823.7199 C215,847.6499 215,866.5799 215,881.9099 " fill="none" id="pod2-to-orders" style="stroke:#181818;stroke-width:1.0;"/><polygon fill="#181818" points="215,887.9099,219,878.9099,215,882.9099,211,878.9099,215,887.9099" style="stroke:#181818;stroke-width:1.0;"/><text fill="#000000" font-family="sans-serif" font-size="13" lengthAdjust="spacing" textLength="69" x="145" y="851.7069">TCP (61616)</text></g><!--link orders to pod3--><g id="link_orders_pod3"><path d="M215,923.5999 C215,948.7599 215,989.4099 215,1032.2799 " fill="none" id="orders-pod3" style="stroke:#181818;stroke-width:1.0;"/><polygon fill="#181818" points="215,917.5999,211,926.5999,215,922.5999,219,926.5999,215,917.5999" style="stroke:#181818;stroke-width:1.0;"/><polygon fill="#181818" points="215,1038.2799,219,1029.2799,215,1033.2799,211,1029.2799,215,1038.2799" style="stroke:#181818;stroke-width:1.0;"/><text fill="#000000" font-family="sans-serif" font-size="13" lengthAdjust="spacing" textLength="69" x="145" y="973.8369">TCP (61616)</text></g><!--link pod3 to InventoryDB--><g id="link_pod3_InventoryDB"><path d="M372.61,1103.0599 C384.4,1103.0599 384.23,1103.0599 395.8,1103.0599 " fill="none" id="pod3-InventoryDB" style="stroke:#181818;stroke-width:1.0;"/><polygon fill="#181818" points="366.61,1103.0599,375.61,1107.0599,371.61,1103.0599,375.61,1099.0599,366.61,1103.0599" style="stroke:#181818;stroke-width:1.0;"/><polygon fill="#181818" points="401.8,1103.0599,392.8,1099.0599,396.8,1103.0599,392.8,1107.0599,401.8,1103.0599" style="stroke:#181818;stroke-width:1.0;"/><text fill="#000000" font-family="sans-serif" font-size="13" lengthAdjust="spacing" textLength="62" x="353.21" y="1117.9569">TCP (5432)</text></g><!--link pod3 to inventoryEvents--><g id="link_pod3_inventoryEvents"><path d="M236,1168.8499 C236,1190.9999 236,1207.7599 236,1222.1599 " fill="none" id="pod3-to-inventoryEvents" style="stroke:#181818;stroke-width:1.0;"/><polygon fill="#181818" points="236,1228.1599,240,1219.1599,236,1223.1599,232,1219.1599,236,1228.1599" style="stroke:#181818;stroke-width:1.0;"/><text fill="#000000" font-family="sans-serif" font-size="13" lengthAdjust="spacing" textLength="69" x="166" y="1194.4069">TCP (61616)</text></g><!--link inventoryEvents to pod4--><g id="link_inventoryEvents_pod4"><path d="M236,1263.9599 C236,1291.0699 236,1338.4399 236,1387.2199 " fill="none" id="inventoryEvents-pod4" style="stroke:#181818;stroke-width:1.0;"/><polygon fill="#181818" points="236,1257.9599,232,1266.9599,236,1262.9599,240,1266.9599,236,1257.9599" style="stroke:#181818;stroke-width:1.0;"/><polygon fill="#181818" points="236,1393.2199,240,1384.2199,236,1388.2199,232,1384.2199,236,1393.2199" style="stroke:#181818;stroke-width:1.0;"/><text fill="#000000" font-family="sans-serif" font-size="13" lengthAdjust="spacing" textLength="69" x="166" y="1321.4869">TCP (61616)</text></g><!--reverse link User to NotificationService--><g id="link_User_NotificationService"><path d="M74.75,533.4499 C74.75,624.0349 74.75,847.3924 74.75,1056.9736 C74.75,1161.7643 74.75,1261.6108 74.75,1336.6947 C74.75,1337.8679 74.75,1339.0351 74.75,1340.1961 " fill="none" id="User-backto-NotificationService" style="stroke:#181818;stroke-width:1.0;stroke-dasharray:7.0,7.0;"/><polygon fill="#181818" points="74.75,527.4499,70.75,536.4499,74.75,532.4499,78.75,536.4499,74.75,527.4499" style="stroke:#181818;stroke-width:1.0;"/><text fill="#000000" font-family="sans-serif" font-size="13" lengthAdjust="spacing" textLength="32" x="41.75" y="993.5369">email</text></g><!--SRC=[nLNDRjD04BxlKupAfH4OaRPmI5kaj0cG2fMqIIMageUDTvkkwkow-sDHK1-cui298q_W5sDsdQuJ4sZ5Zx0FzkxCpZVpVUEn5JRZq1DqgkcC0jLNJbXkdQOPhE-hMQuabvORu93YQsgLniLZw6OgfUMNyhDg4NCfP4xnF6H2SdkTSr3QNYX2gFU74yCr8USgOrp3AwsaxKi6dmZW9HNZqFMeXJ9zOyjRAr9bu94FzPHHSy7lNADxhbWRJkEUlqPS5u8X5fhfF1hm66x9DqcIfVKnppEHbhS5ptoDvqhFECQPKSdezYzFzeInMaoS04IBi4nLHIPSiYNttTtTfVNXwy7X-xXp5jvko0qX4-KGMrzNSOZd3tQIbzKIEe1qEqi23PZIWW4T2zw1D-FnS0G9ZFU7iDv-XbUBH07sQ7hPuF-THaEWCENtCR_HOBux7C1nVpJ-ROhlEPZo2U9oXkfwQWquuyfRBHgYDhaze0N5DXtbMiWfx2bbVo0wF1YrT4BDd8FUta9rFHeW8pfPbUI0uUSXpaMApZhkdinpV5BxMIxh28lP3fMnKytvwEWjhAigYnQf4YMrHWDP89BIrm_KQREfarUW-c83EVzABvg9ZpX7O4B51-hP4xvoJ0kxrbSGUFcxqaLgLikt2dT9mf0W4mPdNVcruABMwSXHL9THnkjALZh-L51HvnP5ZJ8Tggfrh53oWR9k_HTPkrESPNI6bGH9yQnncQK62g6jey9iDt2S5EKt_56aQePZEEUfmBumUE8FbOVmk7BS-NyCVYjcOIDotVTFuoSfgIRZJfYIONfrmhJ2uUY7vCACRBV8tGZOgNtNWldvrkP6Qus4FH-eGaPpiBveuzqYyyq8jTcmax3dOo_swzmd85GU_dYZ4e3EOgIcDK9kBVkHLVsLd5QzTUPoVyh_Mpg0BI0oyXq0]--></g></svg>