<?xml version="1.0" encoding="us-ascii" standalone="no"?><svg xmlns="http://www.w3.org/2000/svg" xmlns:xlink="http://www.w3.org/1999/xlink" contentStyleType="text/css" height="715px" preserveAspectRatio="none" style="width:846px;height:715px;background:#FFFFFF;" version="1.1" viewBox="0 0 846 715" width="846px" zoomAndPan="magnify"><defs/><g><!--cluster InventoryDB--><g id="cluster_InventoryDB"><path d="M6,16 C6,6 135,6 135,6 C135,6 264,6 264,16 L264,151.14 C264,161.14 135,161.14 135,161.14 C135,161.14 6,161.14 6,151.14 L6,16 " fill="none" style="stroke:#181818;stroke-width:1.0;"/><path d="M6,16 C6,26 135,26 135,26 C135,26 264,26 264,16 " fill="none" style="stroke:#181818;stroke-width:1.0;"/><text fill="#000000" font-family="sans-serif" font-size="14" font-weight="bold" lengthAdjust="spacing" textLength="87" x="91.5" y="42.9659">InventoryDB</text></g><!--cluster OrderDB--><g id="cluster_OrderDB"><path d="M288,16 C288,6 558.5,6 558.5,6 C558.5,6 829,6 829,16 L829,688.68 C829,698.68 558.5,698.68 558.5,698.68 C558.5,698.68 288,698.68 288,688.68 L288,16 " fill="none" style="stroke:#181818;stroke-width:1.0;"/><path d="M288,16 C288,26 558.5,26 558.5,26 C558.5,26 829,26 829,16 " fill="none" style="stroke:#181818;stroke-width:1.0;"/><text fill="#000000" font-family="sans-serif" font-size="14" font-weight="bold" lengthAdjust="spacing" textLength="59" x="529" y="42.9659">OrderDB</text></g><!--class InventoryItems--><g id="elem_InventoryItems"><rect codeLine="2" fill="#F1F1F1" height="86.1358" id="InventoryItems" rx="2.5" ry="2.5" style="stroke:#181818;stroke-width:0.5;" width="225" x="22.5" y="59"/><ellipse cx="79.75" cy="75" fill="#ADD1B2" rx="11" ry="11" style="stroke:#181818;stroke-width:1.0;"/><path d="M76.1094,81.5 L76.1094,69.3594 L83.7656,69.3594 L83.7656,71.4844 L78.4844,71.4844 L78.4844,74.1406 L83.5,74.1406 L83.5,76.2656 L78.4844,76.2656 L78.4844,79.375 L83.7656,79.375 L83.7656,81.5 L76.1094,81.5 Z " fill="#000000"/><text fill="#000000" font-family="sans-serif" font-size="14" lengthAdjust="spacing" textLength="102" x="100.25" y="80.432">InventoryItems</text><line style="stroke:#181818;stroke-width:0.5;" x1="23.5" x2="246.5" y1="91" y2="91"/><ellipse cx="33.5" cy="106.034" fill="#000000" rx="3" ry="3" style="stroke:#000000;stroke-width:1.0;"/><text fill="#000000" font-family="sans-serif" font-size="14" lengthAdjust="spacing" textLength="68" x="42.5" y="109.9659">ProdutoID</text><text fill="#000000" font-family="sans-serif" font-size="14" lengthAdjust="spacing" textLength="39" x="202.5" y="109.9659">:UUID</text><line style="stroke:#181818;stroke-width:1.0;" x1="23.5" x2="246.5" y1="118.0679" y2="118.0679"/><ellipse cx="33.5" cy="133.1019" fill="#000000" rx="3" ry="3" style="stroke:#000000;stroke-width:1.0;"/><text fill="#000000" font-family="sans-serif" font-size="14" lengthAdjust="spacing" textLength="134" x="42.5" y="137.0339">QuantidadeEstoque</text><text fill="#000000" font-family="sans-serif" font-size="14" lengthAdjust="spacing" textLength="28" x="202.5" y="137.0339">:INT</text></g><!--class Marcas--><g id="elem_Marcas"><rect codeLine="10" fill="#F1F1F1" height="86.1358" id="Marcas" rx="2.5" ry="2.5" style="stroke:#181818;stroke-width:0.5;" width="217" x="304.5" y="59"/><ellipse cx="384.25" cy="75" fill="#ADD1B2" rx="11" ry="11" style="stroke:#181818;stroke-width:1.0;"/><path d="M380.6094,81.5 L380.6094,69.3594 L388.2656,69.3594 L388.2656,71.4844 L382.9844,71.4844 L382.9844,74.1406 L388,74.1406 L388,76.2656 L382.9844,76.2656 L382.9844,79.375 L388.2656,79.375 L388.2656,81.5 L380.6094,81.5 Z " fill="#000000"/><text fill="#000000" font-family="sans-serif" font-size="14" lengthAdjust="spacing" textLength="49" x="404.75" y="80.432">Marcas</text><line style="stroke:#181818;stroke-width:0.5;" x1="305.5" x2="520.5" y1="91" y2="91"/><ellipse cx="315.5" cy="106.034" fill="#000000" rx="3" ry="3" style="stroke:#000000;stroke-width:1.0;"/><text fill="#000000" font-family="sans-serif" font-size="14" lengthAdjust="spacing" textLength="57" x="324.5" y="109.9659">MarcaID</text><text fill="#000000" font-family="sans-serif" font-size="14" lengthAdjust="spacing" textLength="54" x="420.5" y="109.9659">: SERIAL</text><line style="stroke:#181818;stroke-width:1.0;" x1="305.5" x2="520.5" y1="118.0679" y2="118.0679"/><ellipse cx="315.5" cy="133.1019" fill="#000000" rx="3" ry="3" style="stroke:#000000;stroke-width:1.0;"/><text fill="#000000" font-family="sans-serif" font-size="14" lengthAdjust="spacing" textLength="82" x="324.5" y="137.0339">NomeMarca</text><text fill="#000000" font-family="sans-serif" font-size="14" lengthAdjust="spacing" textLength="95" x="420.5" y="137.0339">: VARCHAR(50)</text></g><!--class Categorias--><g id="elem_Categorias"><rect codeLine="16" fill="#F1F1F1" height="86.1358" id="Categorias" rx="2.5" ry="2.5" style="stroke:#181818;stroke-width:0.5;" width="257" x="556.5" y="59"/><ellipse cx="644.75" cy="75" fill="#ADD1B2" rx="11" ry="11" style="stroke:#181818;stroke-width:1.0;"/><path d="M641.1094,81.5 L641.1094,69.3594 L648.7656,69.3594 L648.7656,71.4844 L643.4844,71.4844 L643.4844,74.1406 L648.5,74.1406 L648.5,76.2656 L643.4844,76.2656 L643.4844,79.375 L648.7656,79.375 L648.7656,81.5 L641.1094,81.5 Z " fill="#000000"/><text fill="#000000" font-family="sans-serif" font-size="14" lengthAdjust="spacing" textLength="72" x="665.25" y="80.432">Categorias</text><line style="stroke:#181818;stroke-width:0.5;" x1="557.5" x2="812.5" y1="91" y2="91"/><ellipse cx="567.5" cy="106.034" fill="#000000" rx="3" ry="3" style="stroke:#000000;stroke-width:1.0;"/><text fill="#000000" font-family="sans-serif" font-size="14" lengthAdjust="spacing" textLength="80" x="576.5" y="109.9659">CategoriaID</text><text fill="#000000" font-family="sans-serif" font-size="14" lengthAdjust="spacing" textLength="54" x="704.5" y="109.9659">: SERIAL</text><line style="stroke:#181818;stroke-width:1.0;" x1="557.5" x2="812.5" y1="118.0679" y2="118.0679"/><ellipse cx="567.5" cy="133.1019" fill="#000000" rx="3" ry="3" style="stroke:#000000;stroke-width:1.0;"/><text fill="#000000" font-family="sans-serif" font-size="14" lengthAdjust="spacing" textLength="105" x="576.5" y="137.0339">NomeCategoria</text><text fill="#000000" font-family="sans-serif" font-size="14" lengthAdjust="spacing" textLength="103" x="704.5" y="137.0339">: VARCHAR(100)</text></g><!--class Produtos--><g id="elem_Produtos"><rect codeLine="22" fill="#F1F1F1" height="124.2717" id="Produtos" rx="2.5" ry="2.5" style="stroke:#181818;stroke-width:0.5;" width="263" x="369.5" y="266.14"/><ellipse cx="466.75" cy="282.14" fill="#ADD1B2" rx="11" ry="11" style="stroke:#181818;stroke-width:1.0;"/><path d="M463.1094,288.64 L463.1094,276.4994 L470.7656,276.4994 L470.7656,278.6244 L465.4844,278.6244 L465.4844,281.2806 L470.5,281.2806 L470.5,283.4056 L465.4844,283.4056 L465.4844,286.515 L470.7656,286.515 L470.7656,288.64 L463.1094,288.64 Z " fill="#000000"/><text fill="#000000" font-family="sans-serif" font-size="14" lengthAdjust="spacing" textLength="60" x="487.25" y="287.572">Produtos</text><line style="stroke:#181818;stroke-width:0.5;" x1="370.5" x2="631.5" y1="298.14" y2="298.14"/><ellipse cx="380.5" cy="313.174" fill="#000000" rx="3" ry="3" style="stroke:#000000;stroke-width:1.0;"/><text fill="#000000" font-family="sans-serif" font-size="14" lengthAdjust="spacing" textLength="68" x="389.5" y="317.1059">ProdutoID</text><text fill="#000000" font-family="sans-serif" font-size="14" lengthAdjust="spacing" textLength="43" x="517.5" y="317.1059">: UUID</text><line style="stroke:#181818;stroke-width:1.0;" x1="370.5" x2="631.5" y1="325.2079" y2="325.2079"/><ellipse cx="380.5" cy="340.2419" fill="#000000" rx="3" ry="3" style="stroke:#000000;stroke-width:1.0;"/><text fill="#000000" font-family="sans-serif" font-size="14" lengthAdjust="spacing" textLength="93" x="389.5" y="344.1739">NomeProduto</text><text fill="#000000" font-family="sans-serif" font-size="14" lengthAdjust="spacing" textLength="103" x="517.5" y="344.1739">: VARCHAR(100)</text><ellipse cx="380.5" cy="359.3098" fill="#000000" rx="3" ry="3" style="stroke:#000000;stroke-width:1.0;"/><text fill="#000000" font-family="sans-serif" font-size="14" lengthAdjust="spacing" textLength="65" x="389.5" y="363.2418">Descricao</text><text fill="#000000" font-family="sans-serif" font-size="14" lengthAdjust="spacing" textLength="103" x="517.5" y="363.2418">: VARCHAR(500)</text><ellipse cx="380.5" cy="378.3777" fill="#000000" rx="3" ry="3" style="stroke:#000000;stroke-width:1.0;"/><text fill="#000000" font-family="sans-serif" font-size="14" lengthAdjust="spacing" textLength="37" x="389.5" y="382.3097">Preco</text><text fill="#000000" font-family="sans-serif" font-size="14" lengthAdjust="spacing" textLength="109" x="517.5" y="382.3097">: DECIMAL(10, 2)</text></g><!--class OrderItem--><g id="elem_OrderItem"><rect codeLine="30" fill="#F1F1F1" height="86.1358" id="OrderItem" rx="2.5" ry="2.5" style="stroke:#181818;stroke-width:0.5;" width="189" x="406.5" y="450.41"/><ellipse cx="461.25" cy="466.41" fill="#ADD1B2" rx="11" ry="11" style="stroke:#181818;stroke-width:1.0;"/><path d="M457.6094,472.91 L457.6094,460.7694 L465.2656,460.7694 L465.2656,462.8944 L459.9844,462.8944 L459.9844,465.5506 L465,465.5506 L465,467.6756 L459.9844,467.6756 L459.9844,470.785 L465.2656,470.785 L465.2656,472.91 L457.6094,472.91 Z " fill="#000000"/><text fill="#000000" font-family="sans-serif" font-size="14" lengthAdjust="spacing" textLength="71" x="481.75" y="471.842">OrderItem</text><line style="stroke:#181818;stroke-width:0.5;" x1="407.5" x2="594.5" y1="482.41" y2="482.41"/><ellipse cx="417.5" cy="497.444" fill="#000000" rx="3" ry="3" style="stroke:#000000;stroke-width:1.0;"/><text fill="#000000" font-family="sans-serif" font-size="14" lengthAdjust="spacing" textLength="13" x="426.5" y="501.3759">id</text><text fill="#000000" font-family="sans-serif" font-size="14" lengthAdjust="spacing" textLength="47" x="522.5" y="501.3759">: LONG</text><line style="stroke:#181818;stroke-width:1.0;" x1="407.5" x2="594.5" y1="509.4779" y2="509.4779"/><ellipse cx="417.5" cy="524.5119" fill="#000000" rx="3" ry="3" style="stroke:#000000;stroke-width:1.0;"/><text fill="#000000" font-family="sans-serif" font-size="14" lengthAdjust="spacing" textLength="56" x="426.5" y="528.4439">quantity</text><text fill="#000000" font-family="sans-serif" font-size="14" lengthAdjust="spacing" textLength="67" x="522.5" y="528.4439">: INTEGER</text></g><!--class Pedidos--><g id="elem_Pedidos"><rect codeLine="36" fill="#F1F1F1" height="86.1358" id="Pedidos" rx="2.5" ry="2.5" style="stroke:#181818;stroke-width:0.5;" width="225" x="388.5" y="596.54"/><ellipse cx="470.25" cy="612.54" fill="#ADD1B2" rx="11" ry="11" style="stroke:#181818;stroke-width:1.0;"/><path d="M466.6094,619.04 L466.6094,606.8994 L474.2656,606.8994 L474.2656,609.0244 L468.9844,609.0244 L468.9844,611.6806 L474,611.6806 L474,613.8056 L468.9844,613.8056 L468.9844,616.915 L474.2656,616.915 L474.2656,619.04 L466.6094,619.04 Z " fill="#000000"/><text fill="#000000" font-family="sans-serif" font-size="14" lengthAdjust="spacing" textLength="53" x="490.75" y="617.972">Pedidos</text><line style="stroke:#181818;stroke-width:0.5;" x1="389.5" x2="612.5" y1="628.54" y2="628.54"/><ellipse cx="399.5" cy="643.574" fill="#000000" rx="3" ry="3" style="stroke:#000000;stroke-width:1.0;"/><text fill="#000000" font-family="sans-serif" font-size="14" lengthAdjust="spacing" textLength="61" x="408.5" y="647.5059">PedidoID</text><text fill="#000000" font-family="sans-serif" font-size="14" lengthAdjust="spacing" textLength="43" x="504.5" y="647.5059">: UUID</text><line style="stroke:#181818;stroke-width:1.0;" x1="389.5" x2="612.5" y1="655.6079" y2="655.6079"/><ellipse cx="399.5" cy="670.6419" fill="#000000" rx="3" ry="3" style="stroke:#000000;stroke-width:1.0;"/><text fill="#000000" font-family="sans-serif" font-size="14" lengthAdjust="spacing" textLength="89" x="408.5" y="674.5739">EmailContato</text><text fill="#000000" font-family="sans-serif" font-size="14" lengthAdjust="spacing" textLength="103" x="504.5" y="674.5739">: VARCHAR(200)</text></g><!--link Marcas to Produtos--><g id="link_Marcas_Produtos"><path codeLine="43" d="M432.5816,152.9474 C445.9316,186.9774 459.0073,220.283 474.0073,258.503 " fill="none" id="Marcas-Produtos" style="stroke:#181818;stroke-width:1.0;"/><line style="stroke:#181818;stroke-width:1.0;" x1="427.3971" x2="434.8445" y1="150.6845" y2="147.7629"/><line style="stroke:#181818;stroke-width:1.0;" x1="428.4927" x2="435.9401" y1="153.4773" y2="150.5557"/><line style="stroke:#181818;stroke-width:1.0;" x1="432.5816" x2="429.66" y1="152.9474" y2="145.5"/><line style="stroke:#181818;stroke-width:1.0;" x1="474.0073" x2="484.377" y1="258.503" y2="265.95"/><line style="stroke:#181818;stroke-width:1.0;" x1="474.0073" x2="469.483" y1="258.503" y2="265.95"/><line style="stroke:#181818;stroke-width:1.0;" x1="474.0073" x2="476.93" y1="258.503" y2="265.95"/></g><!--link Categorias to Produtos--><g id="link_Categorias_Produtos"><path codeLine="44" d="M645.0957,151.6848 C617.1757,185.7148 587.7655,221.5462 556.3955,259.7662 " fill="none" id="Categorias-Produtos" style="stroke:#181818;stroke-width:1.0;"/><line style="stroke:#181818;stroke-width:1.0;" x1="644.5405" x2="650.7252" y1="146.0552" y2="151.1295"/><line style="stroke:#181818;stroke-width:1.0;" x1="642.6376" x2="648.8224" y1="148.3745" y2="153.4488"/><line style="stroke:#181818;stroke-width:1.0;" x1="645.0957" x2="650.17" y1="151.6848" y2="145.5"/><line style="stroke:#181818;stroke-width:1.0;" x1="556.3955" x2="557.5038" y1="259.7662" y2="265.95"/><line style="stroke:#181818;stroke-width:1.0;" x1="556.3955" x2="545.1362" y1="259.7662" y2="265.95"/><line style="stroke:#181818;stroke-width:1.0;" x1="556.3955" x2="551.32" y1="259.7662" y2="265.95"/></g><!--link Produtos to OrderItem--><g id="link_Produtos_OrderItem"><path codeLine="45" d="M501,398.51 C501,418.41 501,424.03 501,442.23 " fill="none" id="Produtos-OrderItem" style="stroke:#181818;stroke-width:1.0;"/><line style="stroke:#181818;stroke-width:1.0;" x1="497" x2="505" y1="394.51" y2="394.51"/><line style="stroke:#181818;stroke-width:1.0;" x1="497" x2="505" y1="397.51" y2="397.51"/><line style="stroke:#181818;stroke-width:1.0;" x1="501" x2="501" y1="398.51" y2="390.51"/><line style="stroke:#181818;stroke-width:1.0;" x1="501" x2="509" y1="442.23" y2="450.23"/><line style="stroke:#181818;stroke-width:1.0;" x1="501" x2="493" y1="442.23" y2="450.23"/><line style="stroke:#181818;stroke-width:1.0;" x1="501" x2="501" y1="442.23" y2="450.23"/></g><!--link OrderItem to Pedidos--><g id="link_OrderItem_Pedidos"><path codeLine="46" d="M501,544.94 C501,563.71 501,569.72 501,588.45 " fill="none" id="OrderItem-Pedidos" style="stroke:#181818;stroke-width:1.0;"/><line style="stroke:#181818;stroke-width:1.0;" x1="501" x2="493" y1="544.94" y2="536.94"/><line style="stroke:#181818;stroke-width:1.0;" x1="501" x2="509" y1="544.94" y2="536.94"/><line style="stroke:#181818;stroke-width:1.0;" x1="501" x2="501" y1="544.94" y2="536.94"/><line style="stroke:#181818;stroke-width:1.0;" x1="505" x2="497" y1="592.45" y2="592.45"/><line style="stroke:#181818;stroke-width:1.0;" x1="505" x2="497" y1="589.45" y2="589.45"/><line style="stroke:#181818;stroke-width:1.0;" x1="501" x2="501" y1="588.45" y2="596.45"/></g><!--SRC=[ZL9DQuD04BtxA_RObWffe1S90QkIBXYJsYQdNgRk4gJLJTQr4DJ_tdMpyGiZtRtDUpFlyMQE47t3WIAS_j9KC7vsNz1YuOA0ByZeSeaA0yadiLYSMnOMDCaqLhy7jEMCv89X5tsA-bkx7NORt3JD3lSj1pcF0A5U9jWffxB7mi67ebH6PHX7RMl32UMJbjR08-XRKILjn4BlNeXj_uQJW2LKqMi7Q6-7pgiTtZtFxhMLhf83WXuOZmTgJVd_YarBJ_LfDYghWvrAsq8JOTU2cZukTw6vD8ju707J4ziiUhGjfn6xhXYvdeFNjYzdFQBvc7crl_fOUkvZqapmDy7gXl6JkX8vvCAKz-6jl70i8KfYCWn8rLG-a-bu2SG_3ai53EAPjzkGQlhAob9s5yrAZCv93A5cRJLGj44ORIILQPRbrVqV]--></g></svg>