<?xml version="1.0" encoding="us-ascii" standalone="no"?><svg xmlns="http://www.w3.org/2000/svg" xmlns:xlink="http://www.w3.org/1999/xlink" contentStyleType="text/css" height="650px" preserveAspectRatio="none" style="width:1176px;height:650px;background:#FFFFFF;" version="1.1" viewBox="0 0 1176 650" width="1176px" zoomAndPan="magnify"><defs/><g><rect fill="none" height="100.0999" style="stroke:#000000;stroke-width:1.5;" width="485.5" x="533.5" y="354.716"/><line style="stroke:#181818;stroke-width:0.5;stroke-dasharray:5.0,5.0;" x1="34" x2="34" y1="84.0679" y2="566.934"/><line style="stroke:#181818;stroke-width:0.5;stroke-dasharray:5.0,5.0;" x1="124.5" x2="124.5" y1="84.0679" y2="566.934"/><line style="stroke:#181818;stroke-width:0.5;stroke-dasharray:5.0,5.0;" x1="239" x2="239" y1="84.0679" y2="566.934"/><line style="stroke:#181818;stroke-width:0.5;stroke-dasharray:5.0,5.0;" x1="381.5" x2="381.5" y1="84.0679" y2="566.934"/><line style="stroke:#181818;stroke-width:0.5;stroke-dasharray:5.0,5.0;" x1="456.5" x2="456.5" y1="84.0679" y2="566.934"/><line style="stroke:#181818;stroke-width:0.5;stroke-dasharray:5.0,5.0;" x1="602.5" x2="602.5" y1="84.0679" y2="566.934"/><line style="stroke:#181818;stroke-width:0.5;stroke-dasharray:5.0,5.0;" x1="826" x2="826" y1="84.0679" y2="566.934"/><line style="stroke:#181818;stroke-width:0.5;stroke-dasharray:5.0,5.0;" x1="945" x2="945" y1="84.0679" y2="566.934"/><line style="stroke:#181818;stroke-width:0.5;stroke-dasharray:5.0,5.0;" x1="1109" x2="1109" y1="84.0679" y2="566.934"/><text fill="#000000" font-family="sans-serif" font-size="14" lengthAdjust="spacing" textLength="52" x="5" y="79.9659">Usu&#225;rio</text><ellipse cx="34" cy="13.5" fill="#E2E2F0" rx="8" ry="8" style="stroke:#181818;stroke-width:0.5;"/><path d="M34,21.5 L34,48.5 M21,29.5 L47,29.5 M34,48.5 L21,63.5 M34,48.5 L47,63.5 " fill="none" style="stroke:#181818;stroke-width:0.5;"/><text fill="#000000" font-family="sans-serif" font-size="14" lengthAdjust="spacing" textLength="52" x="5" y="580.9">Usu&#225;rio</text><ellipse cx="34" cy="593.502" fill="#E2E2F0" rx="8" ry="8" style="stroke:#181818;stroke-width:0.5;"/><path d="M34,601.502 L34,628.502 M21,609.502 L47,609.502 M34,628.502 L21,643.502 M34,628.502 L47,643.502 " fill="none" style="stroke:#181818;stroke-width:0.5;"/><text fill="#000000" font-family="sans-serif" font-size="14" lengthAdjust="spacing" textLength="61" x="91.5" y="79.9659">FrontEnd</text><path d="M104.5,37 L104.5,61 M104.5,49 L121.5,49 " fill="none" style="stroke:#181818;stroke-width:0.5;"/><ellipse cx="133.5" cy="49" fill="#E2E2F0" rx="12" ry="12" style="stroke:#181818;stroke-width:0.5;"/><text fill="#000000" font-family="sans-serif" font-size="14" lengthAdjust="spacing" textLength="61" x="91.5" y="580.9">FrontEnd</text><path d="M104.5,589.002 L104.5,613.002 M104.5,601.002 L121.5,601.002 " fill="none" style="stroke:#181818;stroke-width:0.5;"/><ellipse cx="133.5" cy="601.002" fill="#E2E2F0" rx="12" ry="12" style="stroke:#181818;stroke-width:0.5;"/><text fill="#000000" font-family="sans-serif" font-size="14" lengthAdjust="spacing" textLength="88" x="192" y="79.9659">OrderService</text><ellipse cx="239" cy="49" fill="#E2E2F0" rx="12" ry="12" style="stroke:#181818;stroke-width:0.5;"/><polygon fill="#181818" points="235,37,241,32,239,37,241,42,235,37" style="stroke:#181818;stroke-width:1.0;"/><text fill="#000000" font-family="sans-serif" font-size="14" lengthAdjust="spacing" textLength="88" x="192" y="580.9">OrderService</text><ellipse cx="239" cy="601.002" fill="#E2E2F0" rx="12" ry="12" style="stroke:#181818;stroke-width:0.5;"/><polygon fill="#181818" points="235,589.002,241,584.002,239,589.002,241,594.002,235,589.002" style="stroke:#181818;stroke-width:1.0;"/><text fill="#000000" font-family="sans-serif" font-size="14" lengthAdjust="spacing" textLength="59" x="349.5" y="79.9659">OrderDB</text><path d="M364,29 C364,19 382,19 382,19 C382,19 400,19 400,29 L400,55 C400,65 382,65 382,65 C382,65 364,65 364,55 L364,29 " fill="#E2E2F0" style="stroke:#181818;stroke-width:1.5;"/><path d="M364,29 C364,39 382,39 382,39 C382,39 400,39 400,29 " fill="none" style="stroke:#181818;stroke-width:1.5;"/><text fill="#000000" font-family="sans-serif" font-size="14" lengthAdjust="spacing" textLength="59" x="349.5" y="580.9">OrderDB</text><path d="M364,595.002 C364,585.002 382,585.002 382,585.002 C382,585.002 400,585.002 400,595.002 L400,621.002 C400,631.002 382,631.002 382,631.002 C382,631.002 364,631.002 364,621.002 L364,595.002 " fill="#E2E2F0" style="stroke:#181818;stroke-width:1.5;"/><path d="M364,595.002 C364,605.002 382,605.002 382,605.002 C382,605.002 400,605.002 400,595.002 " fill="none" style="stroke:#181818;stroke-width:1.5;"/><path d="M429.5,55 L483.5,55 C488.5,55 488.5,69.534 488.5,69.534 C488.5,69.534 488.5,84.0679 483.5,84.0679 L429.5,84.0679 C424.5,84.0679 424.5,69.534 424.5,69.534 C424.5,69.534 424.5,55 429.5,55 " fill="#E2E2F0" style="stroke:#181818;stroke-width:0.5;"/><path d="M483.5,55 C478.5,55 478.5,69.534 478.5,69.534 C478.5,84.0679 483.5,84.0679 483.5,84.0679 " fill="none" style="stroke:#181818;stroke-width:0.5;"/><text fill="#000000" font-family="sans-serif" font-size="14" lengthAdjust="spacing" textLength="44" x="429.5" y="74.9659">orders</text><path d="M429.5,565.934 L483.5,565.934 C488.5,565.934 488.5,580.468 488.5,580.468 C488.5,580.468 488.5,595.002 483.5,595.002 L429.5,595.002 C424.5,595.002 424.5,580.468 424.5,580.468 C424.5,580.468 424.5,565.934 429.5,565.934 " fill="#E2E2F0" style="stroke:#181818;stroke-width:0.5;"/><path d="M483.5,565.934 C478.5,565.934 478.5,580.468 478.5,580.468 C478.5,595.002 483.5,595.002 483.5,595.002 " fill="none" style="stroke:#181818;stroke-width:0.5;"/><text fill="#000000" font-family="sans-serif" font-size="14" lengthAdjust="spacing" textLength="44" x="429.5" y="585.9">orders</text><text fill="#000000" font-family="sans-serif" font-size="14" lengthAdjust="spacing" textLength="112" x="543.5" y="79.9659">InventoryService</text><ellipse cx="602.5" cy="49" fill="#E2E2F0" rx="12" ry="12" style="stroke:#181818;stroke-width:0.5;"/><polygon fill="#181818" points="598.5,37,604.5,32,602.5,37,604.5,42,598.5,37" style="stroke:#181818;stroke-width:1.0;"/><text fill="#000000" font-family="sans-serif" font-size="14" lengthAdjust="spacing" textLength="112" x="543.5" y="580.9">InventoryService</text><ellipse cx="602.5" cy="601.002" fill="#E2E2F0" rx="12" ry="12" style="stroke:#181818;stroke-width:0.5;"/><polygon fill="#181818" points="598.5,589.002,604.5,584.002,602.5,589.002,604.5,594.002,598.5,589.002" style="stroke:#181818;stroke-width:1.0;"/><text fill="#000000" font-family="sans-serif" font-size="14" lengthAdjust="spacing" textLength="83" x="782" y="79.9659">InventoryDB</text><path d="M808.5,29 C808.5,19 826.5,19 826.5,19 C826.5,19 844.5,19 844.5,29 L844.5,55 C844.5,65 826.5,65 826.5,65 C826.5,65 808.5,65 808.5,55 L808.5,29 " fill="#E2E2F0" style="stroke:#181818;stroke-width:1.5;"/><path d="M808.5,29 C808.5,39 826.5,39 826.5,39 C826.5,39 844.5,39 844.5,29 " fill="none" style="stroke:#181818;stroke-width:1.5;"/><text fill="#000000" font-family="sans-serif" font-size="14" lengthAdjust="spacing" textLength="83" x="782" y="580.9">InventoryDB</text><path d="M808.5,595.002 C808.5,585.002 826.5,585.002 826.5,585.002 C826.5,585.002 844.5,585.002 844.5,595.002 L844.5,621.002 C844.5,631.002 826.5,631.002 826.5,631.002 C826.5,631.002 808.5,631.002 808.5,621.002 L808.5,595.002 " fill="#E2E2F0" style="stroke:#181818;stroke-width:1.5;"/><path d="M808.5,595.002 C808.5,605.002 826.5,605.002 826.5,605.002 C826.5,605.002 844.5,605.002 844.5,595.002 " fill="none" style="stroke:#181818;stroke-width:1.5;"/><path d="M886,55 L1004,55 C1009,55 1009,69.534 1009,69.534 C1009,69.534 1009,84.0679 1004,84.0679 L886,84.0679 C881,84.0679 881,69.534 881,69.534 C881,69.534 881,55 886,55 " fill="#E2E2F0" style="stroke:#181818;stroke-width:0.5;"/><path d="M1004,55 C999,55 999,69.534 999,69.534 C999,84.0679 1004,84.0679 1004,84.0679 " fill="none" style="stroke:#181818;stroke-width:0.5;"/><text fill="#000000" font-family="sans-serif" font-size="14" lengthAdjust="spacing" textLength="108" x="886" y="74.9659">InventoryEvents</text><path d="M886,565.934 L1004,565.934 C1009,565.934 1009,580.468 1009,580.468 C1009,580.468 1009,595.002 1004,595.002 L886,595.002 C881,595.002 881,580.468 881,580.468 C881,580.468 881,565.934 886,565.934 " fill="#E2E2F0" style="stroke:#181818;stroke-width:0.5;"/><path d="M1004,565.934 C999,565.934 999,580.468 999,580.468 C999,595.002 1004,595.002 1004,595.002 " fill="none" style="stroke:#181818;stroke-width:0.5;"/><text fill="#000000" font-family="sans-serif" font-size="14" lengthAdjust="spacing" textLength="108" x="886" y="585.9">InventoryEvents</text><text fill="#000000" font-family="sans-serif" font-size="14" lengthAdjust="spacing" textLength="126" x="1043" y="79.9659">NotificationService</text><ellipse cx="1109" cy="49" fill="#E2E2F0" rx="12" ry="12" style="stroke:#181818;stroke-width:0.5;"/><polygon fill="#181818" points="1105,37,1111,32,1109,37,1111,42,1105,37" style="stroke:#181818;stroke-width:1.0;"/><text fill="#000000" font-family="sans-serif" font-size="14" lengthAdjust="spacing" textLength="126" x="1043" y="580.9">NotificationService</text><ellipse cx="1109" cy="601.002" fill="#E2E2F0" rx="12" ry="12" style="stroke:#181818;stroke-width:0.5;"/><polygon fill="#181818" points="1105,589.002,1111,584.002,1109,589.002,1111,594.002,1105,589.002" style="stroke:#181818;stroke-width:1.0;"/><polygon fill="#181818" points="113,113.7739,123,117.7739,113,121.7739,117,117.7739" style="stroke:#181818;stroke-width:1.0;"/><line style="stroke:#181818;stroke-width:1.0;" x1="34" x2="119" y1="117.7739" y2="117.7739"/><text fill="#000000" font-family="sans-serif" font-size="13" lengthAdjust="spacing" textLength="67" x="41" y="111.9649">0 - interage</text><polygon fill="#181818" points="227,145.4799,237,149.4799,227,153.4799,231,149.4799" style="stroke:#181818;stroke-width:1.0;"/><line style="stroke:#181818;stroke-width:1.0;" x1="125" x2="233" y1="149.4799" y2="149.4799"/><text fill="#000000" font-family="sans-serif" font-size="13" lengthAdjust="spacing" textLength="90" x="132" y="143.6709">1 - POST /order</text><polygon fill="#181818" points="370,177.186,380,181.186,370,185.186,374,181.186" style="stroke:#181818;stroke-width:1.0;"/><line style="stroke:#181818;stroke-width:1.0;" x1="239" x2="376" y1="181.186" y2="181.186"/><text fill="#000000" font-family="sans-serif" font-size="13" lengthAdjust="spacing" textLength="119" x="246" y="175.377">2 - registra o pedido</text><polygon fill="#181818" points="444.5,208.892,454.5,212.892,444.5,216.892,448.5,212.892" style="stroke:#181818;stroke-width:1.0;"/><line style="stroke:#181818;stroke-width:1.0;" x1="239" x2="450.5" y1="212.892" y2="212.892"/><text fill="#000000" font-family="sans-serif" font-size="13" lengthAdjust="spacing" textLength="116" x="246" y="207.083">3 - Publica o pedido</text><polygon fill="#181818" points="467.5,240.598,457.5,244.598,467.5,248.598,463.5,244.598" style="stroke:#181818;stroke-width:1.0;"/><line style="stroke:#181818;stroke-width:1.0;" x1="461.5" x2="601.5" y1="244.598" y2="244.598"/><text fill="#000000" font-family="sans-serif" font-size="13" lengthAdjust="spacing" textLength="104" x="473.5" y="238.789">4 - Solicita pedido</text><polygon fill="#181818" points="590.5,272.304,600.5,276.304,590.5,280.304,594.5,276.304" style="stroke:#181818;stroke-width:1.0;"/><line style="stroke:#181818;stroke-width:1.0;" x1="456.5" x2="596.5" y1="276.304" y2="276.304"/><text fill="#000000" font-family="sans-serif" font-size="13" lengthAdjust="spacing" textLength="122" x="463.5" y="270.495">5 - Responde pedido</text><polygon fill="#181818" points="814.5,304.01,824.5,308.01,814.5,312.01,818.5,308.01" style="stroke:#181818;stroke-width:1.0;"/><line style="stroke:#181818;stroke-width:1.0;" x1="602.5" x2="820.5" y1="308.01" y2="308.01"/><text fill="#000000" font-family="sans-serif" font-size="13" lengthAdjust="spacing" textLength="191" x="609.5" y="302.201">6 - Realiza transa&#231;&#227;o do estoque</text><polygon fill="#181818" points="613.5,335.716,603.5,339.716,613.5,343.716,609.5,339.716" style="stroke:#181818;stroke-width:1.0;"/><line style="stroke:#181818;stroke-width:1.0;" x1="607.5" x2="825.5" y1="339.716" y2="339.716"/><text fill="#000000" font-family="sans-serif" font-size="13" lengthAdjust="spacing" textLength="200" x="619.5" y="333.907">7 - Recebe resultado da transa&#231;&#227;o</text><path d="M533.5,354.716 L596.5,354.716 L596.5,364.4221 L586.5,374.4221 L533.5,374.4221 L533.5,354.716 " fill="#EEEEEE" style="stroke:#000000;stroke-width:1.5;"/><rect fill="none" height="100.0999" style="stroke:#000000;stroke-width:1.5;" width="485.5" x="533.5" y="354.716"/><text fill="#000000" font-family="sans-serif" font-size="13" font-weight="bold" lengthAdjust="spacing" textLength="18" x="548.5" y="369.6131">alt</text><text fill="#000000" font-family="sans-serif" font-size="11" font-weight="bold" lengthAdjust="spacing" textLength="53" x="611.5" y="368.475">[sucesso]</text><polygon fill="#181818" points="933,394.1281,943,398.1281,933,402.1281,937,398.1281" style="stroke:#181818;stroke-width:1.0;"/><line style="stroke:#181818;stroke-width:1.0;" x1="602.5" x2="939" y1="398.1281" y2="398.1281"/><text fill="#000000" font-family="sans-serif" font-size="13" lengthAdjust="spacing" textLength="179" x="609.5" y="392.3191">8 - Registra evento de sucesso</text><line style="stroke:#000000;stroke-width:1.0;stroke-dasharray:2.0,2.0;" x1="533.5" x2="1019" y1="407.1281" y2="407.1281"/><text fill="#000000" font-family="sans-serif" font-size="11" font-weight="bold" lengthAdjust="spacing" textLength="168" x="538.5" y="418.887">[falha ao realizar a transa&#231;&#227;o]</text><polygon fill="#181818" points="933,442.816,943,446.816,933,450.816,937,446.816" style="stroke:#181818;stroke-width:1.0;"/><line style="stroke:#181818;stroke-width:1.0;" x1="602.5" x2="939" y1="446.816" y2="446.816"/><text fill="#000000" font-family="sans-serif" font-size="13" lengthAdjust="spacing" textLength="161" x="609.5" y="441.007">8 - Registra evento de falha</text><polygon fill="#181818" points="956,481.522,946,485.522,956,489.522,952,485.522" style="stroke:#181818;stroke-width:1.0;"/><line style="stroke:#181818;stroke-width:1.0;" x1="950" x2="1108" y1="485.522" y2="485.522"/><text fill="#000000" font-family="sans-serif" font-size="13" lengthAdjust="spacing" textLength="127" x="962" y="479.713">9 - Solicita um evento</text><polygon fill="#181818" points="1097,513.228,1107,517.228,1097,521.228,1101,517.228" style="stroke:#181818;stroke-width:1.0;"/><line style="stroke:#181818;stroke-width:1.0;" x1="945" x2="1103" y1="517.228" y2="517.228"/><text fill="#000000" font-family="sans-serif" font-size="13" lengthAdjust="spacing" textLength="140" x="952" y="511.419">10 - Devolve um evento</text><polygon fill="#181818" points="45,544.934,35,548.934,45,552.934,41,548.934" style="stroke:#181818;stroke-width:1.0;"/><line style="stroke:#181818;stroke-width:1.0;" x1="39" x2="1108" y1="548.934" y2="548.934"/><text fill="#000000" font-family="sans-serif" font-size="13" lengthAdjust="spacing" textLength="118" x="51" y="543.125">11 - Notifica usu&#225;rio</text><!--SRC=[fP9BJiD038RtSmfVe8Bo9a8igXQ93KKK3k1at39I69TvH2gtGImuI2-6apHfsbJgWjKezlz_ViIO1NRmvkFwsnbMAKUhqQtWmR4D4wjL9g_Z7APEavkHAqn6IcF053tLqV58VKQA15n- -TRoQ0koWb_rR6scjRQHIVbk6KySpDna60pR1gEQTc5mtpQQm2aCmDX03XUacd0fwRQUm51apzFPAvnKxQfkjbMFHmcSYT3HmlZW41YMf8tcdhoUEO7p4XlJN7hTYkiat0rwkqZWGWmp5hq9kASNR5z_AVeNyakscXhzlch7MSvmLPamDry8CeRrkFvT_p1e1lA1PVTzHhVRad5TCJ9AITRXOnvGt7g7fp0Fu6D6tXzfglwz2TnKqCrogKg2pDKmA9ShcMF-Ze0iPQi97EmM_K-XYgr83lp0XHq4tNR_L_pOi0xQknjixCFoFCTKS5xG4RjKRovSVEMzDYg8c_WV]--></g></svg>